<?xml version="1.0" encoding="utf-8"?>
<!-- Generator: Adobe Illustrator 16.0.0, SVG Export Plug-In . SVG Version: 6.00 Build 0)  -->
<!DOCTYPE svg PUBLIC "-//W3C//DTD SVG 1.1//EN" "http://www.w3.org/Graphics/SVG/1.1/DTD/svg11.dtd">
<svg version="1.1" id="Layer_1" xmlns="http://www.w3.org/2000/svg" xmlns:xlink="http://www.w3.org/1999/xlink" x="0px" y="0px"
	 width="63.875px" height="22.75px" viewBox="0 0 63.875 22.75" enable-background="new 0 0 63.875 22.75" xml:space="preserve">
<path fill-rule="evenodd" clip-rule="evenodd" fill="#010101" d="M3.626,0.226h14.607L18.271,0.3
	c0.674,4.195,0.262,7.678-0.974,10.412c-1.273,2.772-3.446,4.869-6.33,6.367H10.93c-2.921-1.46-4.981-3.595-6.218-6.405
	C3.477,7.866,3.102,4.383,3.552,0.263L3.626,0.226z"/>
<path fill-rule="evenodd" clip-rule="evenodd" fill="#FDEB03" d="M3.776,0.45C3.402,3.821,3.552,7.454,4.938,10.6
	c1.198,2.809,3.258,4.832,6.03,6.217c2.697-1.422,4.832-3.408,6.105-6.179c1.46-3.184,1.498-6.779,0.974-10.15L3.776,0.45z"/>
<polygon fill-rule="evenodd" clip-rule="evenodd" fill="#CF2027" points="7.896,17.754 8.233,17.567 8.533,17.417 8.87,17.266 
	9.207,17.192 9.544,17.155 9.919,17.118 10.218,17.155 10.556,17.192 10.893,17.304 11.229,17.417 11.866,17.792 12.166,18.016 
	12.466,18.278 12.728,18.616 12.99,18.915 12.503,19.065 12.428,18.915 12.241,18.653 12.054,18.391 11.642,17.979 11.417,17.866 
	11.155,17.716 10.93,17.604 10.668,17.567 10.406,17.567 10.181,17.567 9.919,17.641 9.657,17.716 9.432,17.866 8.833,18.167 
	8.046,18.616 7.634,18.803 7.26,18.915 6.848,18.99 6.398,19.065 5.986,19.065 6.66,18.616 "/>
<polygon fill-rule="evenodd" clip-rule="evenodd" fill="#CF2027" points="14.039,17.754 13.702,17.567 13.365,17.417 13.065,17.266 
	12.728,17.192 12.391,17.155 12.016,17.118 11.716,17.155 11.342,17.192 11.005,17.304 10.706,17.417 10.069,17.792 9.769,18.016 
	9.469,18.278 9.207,18.616 8.945,18.915 9.432,19.065 9.507,18.915 9.694,18.653 9.844,18.391 10.293,17.979 10.518,17.866 
	10.78,17.716 11.005,17.604 11.267,17.567 11.529,17.567 11.754,17.567 12.016,17.641 12.241,17.716 12.466,17.866 13.103,18.167 
	13.889,18.616 14.301,18.803 14.675,18.915 15.087,18.99 15.537,19.065 15.949,19.065 15.237,18.616 "/>
<path fill-rule="evenodd" clip-rule="evenodd" fill="#CF2027" d="M1.716,17.454l0.075,0.076l0.112,0.074l0.075,0.037l0.112,0.037
	l0.113,0.076l0.112,0.037l0.262,0.037l0.262,0.074l0.3,0.038h0.262l0.262,0.038l0.524,0.037L4.6,18.053l0.15,0.037l0.15,0.038h0.038
	v0.038l0.037,0.037l-0.187,0.898c4.157,0.563,8.54,0.787,12.285,0.074l-0.112-0.973l0.037-0.037l0.038-0.038h0.038l0.112-0.038
	l0.15-0.037l0.412-0.037l0.524-0.037l0.262-0.038h0.3l0.262-0.038l0.262-0.074l0.262-0.037l0.112-0.037l0.112-0.076l0.112-0.037
	l0.112-0.037l0.075-0.074l0.075-0.076l-0.412,0.75l0.487-0.113h0.038h0.075l0.037,0.038h0.038l0.038,0.038l0.037,0.037v0.037
	l-0.075,0.262l-0.038,0.301l-0.037,0.336v0.338v0.299l-0.038,0.338l0.038,0.262V20.6v0.075v0.038l-0.038,0.037l-0.037,0.037
	l-0.112,0.074l-0.112,0.076l-0.337,0.111l-0.375,0.075l-0.412,0.112l-0.487,0.075l-0.487,0.075l-0.524,0.074l-0.562,0.075
	l-0.6,0.075l-0.637,0.037l-0.637,0.037l-0.637,0.037l-0.711,0.038l-0.674,0.038h-0.674l-0.712,0.037H10.93h-0.712l-0.674-0.037
	H8.833l-0.674-0.038l-0.674-0.038l-0.637-0.037l-0.637-0.037l-0.637-0.037l-0.6-0.075l-0.562-0.075l-0.524-0.074l-0.487-0.075
	l-0.45-0.075l-0.412-0.112l-0.375-0.075l-0.337-0.111l-0.112-0.076l-0.112-0.074L1.566,20.75v-0.037l-0.038-0.038V20.6l0.038-0.225
	v-0.262v-0.338v-0.299l-0.038-0.338l-0.037-0.336l-0.038-0.301l-0.075-0.262l0.037-0.037v-0.037l0.038-0.038h0.038l0.037-0.038
	h0.075h0.038l0.487,0.113L1.716,17.454z"/>
<path fill="none" stroke="#FFFFFF" stroke-width="0.117" stroke-linecap="round" stroke-linejoin="round" stroke-miterlimit="10" d="
	M4.788,19.096c-1.311,0.149-2.36-0.113-3.258-0.861"/>
<path fill="none" stroke="#FFFFFF" stroke-width="0.117" stroke-linecap="round" stroke-linejoin="round" stroke-miterlimit="10" d="
	M17.073,19.17c1.273,0.075,2.359-0.262,3.408-0.898"/>
<path fill="none" stroke="#FFFFFF" stroke-width="0.117" stroke-linecap="round" stroke-linejoin="round" stroke-miterlimit="10" d="
	M2.128,18.197c0.974,0.337,1.835,0.337,2.771,0.038"/>
<path fill="none" stroke="#FFFFFF" stroke-width="0.117" stroke-linecap="round" stroke-linejoin="round" stroke-miterlimit="10" d="
	M19.807,18.197c-0.974,0.337-1.873,0.337-2.772,0.038"/>
<path fill-rule="evenodd" clip-rule="evenodd" fill="#CF2027" d="M1.716,17.454l0.075,0.076l0.112,0.074l0.075,0.037l0.112,0.037
	l0.113,0.076l0.112,0.037l0.262,0.037l0.262,0.074l0.3,0.038h0.262l0.262,0.038l0.524,0.037L4.6,18.053l0.15,0.037l0.15,0.038h0.038
	v0.038l0.037,0.037l-0.187,0.898c4.157,0.563,8.54,0.787,12.285,0.074l-0.112-0.973l0.037-0.037l0.038-0.038h0.038l0.112-0.038
	l0.15-0.037l0.412-0.037l0.524-0.037l0.262-0.038h0.3l0.262-0.038l0.262-0.074l0.262-0.037l0.112-0.037l0.112-0.076l0.112-0.037
	l0.112-0.037l0.075-0.074l0.075-0.076l-0.412,0.75l0.487-0.113h0.038h0.075l0.037,0.038h0.038l0.038,0.038l0.037,0.037v0.037
	l-0.075,0.262l-0.038,0.301l-0.037,0.336v0.338v0.299l-0.038,0.338l0.038,0.262V20.6v0.075v0.038l-0.038,0.037l-0.037,0.037
	l-0.112,0.074l-0.112,0.076l-0.337,0.111l-0.375,0.075l-0.412,0.112l-0.487,0.075l-0.487,0.075l-0.524,0.074l-0.562,0.075
	l-0.6,0.075l-0.637,0.037l-0.637,0.037l-0.637,0.037l-0.711,0.038l-0.674,0.038h-0.674l-0.712,0.037H10.93h-0.712l-0.674-0.037
	H8.833l-0.674-0.038l-0.674-0.038l-0.637-0.037l-0.637-0.037l-0.637-0.037l-0.6-0.075l-0.562-0.075l-0.524-0.074l-0.487-0.075
	l-0.45-0.075l-0.412-0.112l-0.375-0.075l-0.337-0.111l-0.112-0.076l-0.112-0.074L1.566,20.75v-0.037l-0.038-0.038V20.6l0.038-0.225
	v-0.262v-0.338v-0.299l-0.038-0.338l-0.037-0.336l-0.038-0.301l-0.075-0.262l0.037-0.037v-0.037l0.038-0.038h0.038l0.037-0.038
	h0.075h0.038l0.487,0.113L1.716,17.454z"/>
<path fill="none" stroke="#FFFFFF" stroke-width="0.117" stroke-linecap="round" stroke-linejoin="round" stroke-miterlimit="10" d="
	M4.788,19.096c-1.311,0.149-2.36-0.113-3.258-0.861"/>
<path fill="none" stroke="#FFFFFF" stroke-width="0.117" stroke-linecap="round" stroke-linejoin="round" stroke-miterlimit="10" d="
	M17.073,19.17c1.273,0.075,2.359-0.262,3.408-0.898"/>
<path fill="none" stroke="#FFFFFF" stroke-width="0.117" stroke-linecap="round" stroke-linejoin="round" stroke-miterlimit="10" d="
	M2.128,18.197c0.974,0.337,1.835,0.337,2.771,0.038"/>
<path fill="none" stroke="#FFFFFF" stroke-width="0.117" stroke-linecap="round" stroke-linejoin="round" stroke-miterlimit="10" d="
	M19.807,18.197c-0.974,0.337-1.873,0.337-2.772,0.038"/>
<path fill-rule="evenodd" clip-rule="evenodd" fill="#CF2027" d="M1.716,17.454l0.075,0.076l0.112,0.074l0.075,0.037l0.112,0.037
	l0.113,0.076l0.112,0.037l0.262,0.037l0.262,0.074l0.3,0.038h0.262l0.262,0.038l0.524,0.037L4.6,18.053l0.15,0.037l0.15,0.038h0.038
	v0.038l0.037,0.037l-0.187,0.898c4.157,0.563,8.54,0.787,12.285,0.074l-0.112-0.973l0.037-0.037l0.038-0.038h0.038l0.112-0.038
	l0.15-0.037l0.412-0.037l0.524-0.037l0.262-0.038h0.3l0.262-0.038l0.262-0.074l0.262-0.037l0.112-0.037l0.112-0.076l0.112-0.037
	l0.112-0.037l0.075-0.074l0.075-0.076l-0.412,0.75l0.487-0.113h0.038h0.075l0.037,0.038h0.038l0.038,0.038l0.037,0.037v0.037
	l-0.075,0.262l-0.038,0.301l-0.037,0.336v0.338v0.299l-0.038,0.338l0.038,0.262V20.6v0.075v0.038l-0.038,0.037l-0.037,0.037
	l-0.112,0.074l-0.112,0.076l-0.337,0.111l-0.375,0.075l-0.412,0.112l-0.487,0.075l-0.487,0.075l-0.524,0.074l-0.562,0.075
	l-0.6,0.075l-0.637,0.037l-0.637,0.037l-0.637,0.037l-0.711,0.038l-0.674,0.038h-0.674l-0.712,0.037H10.93h-0.712l-0.674-0.037
	H8.833l-0.674-0.038l-0.674-0.038l-0.637-0.037l-0.637-0.037l-0.637-0.037l-0.6-0.075l-0.562-0.075l-0.524-0.074l-0.487-0.075
	l-0.45-0.075l-0.412-0.112l-0.375-0.075l-0.337-0.111l-0.112-0.076l-0.112-0.074L1.566,20.75v-0.037l-0.038-0.038V20.6l0.038-0.225
	v-0.262v-0.338v-0.299l-0.038-0.338l-0.037-0.336l-0.038-0.301l-0.075-0.262l0.037-0.037v-0.037l0.038-0.038h0.038l0.037-0.038
	h0.075h0.038l0.487,0.113L1.716,17.454z"/>
<path fill="none" stroke="#FFFFFF" stroke-width="0.117" stroke-linecap="round" stroke-linejoin="round" stroke-miterlimit="10" d="
	M4.788,19.096c-1.311,0.149-2.36-0.113-3.258-0.861"/>
<path fill="none" stroke="#FFFFFF" stroke-width="0.117" stroke-linecap="round" stroke-linejoin="round" stroke-miterlimit="10" d="
	M17.073,19.17c1.273,0.075,2.359-0.262,3.408-0.898"/>
<path fill="none" stroke="#FFFFFF" stroke-width="0.117" stroke-linecap="round" stroke-linejoin="round" stroke-miterlimit="10" d="
	M2.128,18.197c0.974,0.337,1.835,0.337,2.771,0.038"/>
<path fill="none" stroke="#FFFFFF" stroke-width="0.117" stroke-linecap="round" stroke-linejoin="round" stroke-miterlimit="10" d="
	M19.807,18.197c-0.974,0.337-1.873,0.337-2.772,0.038"/>
<path fill-rule="evenodd" clip-rule="evenodd" fill="#CF2027" d="M1.716,17.454l0.075,0.076l0.112,0.074l0.075,0.037l0.112,0.037
	l0.113,0.076l0.112,0.037l0.262,0.037l0.262,0.074l0.3,0.038h0.262l0.262,0.038l0.524,0.037L4.6,18.053l0.15,0.037l0.15,0.038h0.038
	v0.038l0.037,0.037l-0.187,0.898c4.157,0.563,8.54,0.787,12.285,0.074l-0.112-0.973l0.037-0.037l0.038-0.038h0.038l0.112-0.038
	l0.15-0.037l0.412-0.037l0.524-0.037l0.262-0.038h0.3l0.262-0.038l0.262-0.074l0.262-0.037l0.112-0.037l0.112-0.076l0.112-0.037
	l0.112-0.037l0.075-0.074l0.075-0.076l-0.412,0.75l0.487-0.113h0.038h0.075l0.037,0.038h0.038l0.038,0.038l0.037,0.037v0.037
	l-0.075,0.262l-0.038,0.301l-0.037,0.336v0.338v0.299l-0.038,0.338l0.038,0.262V20.6v0.075v0.038l-0.038,0.037l-0.037,0.037
	l-0.112,0.074l-0.112,0.076l-0.337,0.111l-0.375,0.075l-0.412,0.112l-0.487,0.075l-0.487,0.075l-0.524,0.074l-0.562,0.075
	l-0.6,0.075l-0.637,0.037l-0.637,0.037l-0.637,0.037l-0.711,0.038l-0.674,0.038h-0.674l-0.712,0.037H10.93h-0.712l-0.674-0.037
	H8.833l-0.674-0.038l-0.674-0.038l-0.637-0.037l-0.637-0.037l-0.637-0.037l-0.6-0.075l-0.562-0.075l-0.524-0.074l-0.487-0.075
	l-0.45-0.075l-0.412-0.112l-0.375-0.075l-0.337-0.111l-0.112-0.076l-0.112-0.074L1.566,20.75v-0.037l-0.038-0.038V20.6l0.038-0.225
	v-0.262v-0.338v-0.299l-0.038-0.338l-0.037-0.336l-0.038-0.301l-0.075-0.262l0.037-0.037v-0.037l0.038-0.038h0.038l0.037-0.038
	h0.075h0.038l0.487,0.113L1.716,17.454z"/>
<path fill="none" stroke="#FFFFFF" stroke-width="0.117" stroke-linecap="round" stroke-linejoin="round" stroke-miterlimit="10" d="
	M4.788,19.096c-1.311,0.149-2.36-0.113-3.258-0.861"/>
<path fill="none" stroke="#FFFFFF" stroke-width="0.117" stroke-linecap="round" stroke-linejoin="round" stroke-miterlimit="10" d="
	M17.073,19.17c1.273,0.075,2.359-0.262,3.408-0.898"/>
<path fill="none" stroke="#FFFFFF" stroke-width="0.117" stroke-linecap="round" stroke-linejoin="round" stroke-miterlimit="10" d="
	M2.128,18.197c0.974,0.337,1.835,0.337,2.771,0.038"/>
<path fill="none" stroke="#FFFFFF" stroke-width="0.117" stroke-linecap="round" stroke-linejoin="round" stroke-miterlimit="10" d="
	M19.807,18.197c-0.974,0.337-1.873,0.337-2.772,0.038"/>
<path fill="#CF2027" d="M62.954,0.412l0.113,3.371h-0.337c-0.15-0.861-0.487-1.535-1.086-2.022
	c-0.562-0.524-1.198-0.787-1.873-0.787c-0.486,0-0.899,0.15-1.198,0.412c-0.337,0.262-0.487,0.562-0.487,0.937
	c0,0.225,0.075,0.412,0.187,0.599c0.15,0.225,0.375,0.45,0.712,0.674c0.225,0.15,0.786,0.45,1.648,0.861
	c1.198,0.562,2.022,1.124,2.435,1.648c0.412,0.487,0.637,1.086,0.637,1.76c0,0.824-0.337,1.536-1.012,2.135
	c-0.674,0.637-1.535,0.937-2.584,0.937c-0.3,0-0.637-0.038-0.899-0.112c-0.3-0.075-0.674-0.188-1.086-0.375
	c-0.262-0.075-0.45-0.112-0.599-0.112c-0.15,0-0.3,0.037-0.45,0.112c-0.15,0.112-0.262,0.262-0.337,0.487h-0.262v-3.82h0.262
	c0.225,1.086,0.636,1.91,1.273,2.472c0.637,0.524,1.349,0.824,2.06,0.824c0.562,0,1.049-0.15,1.386-0.45
	c0.337-0.299,0.487-0.637,0.487-1.049c0-0.225-0.075-0.487-0.188-0.711c-0.15-0.188-0.337-0.412-0.599-0.6
	c-0.262-0.225-0.711-0.486-1.386-0.786c-0.936-0.45-1.61-0.861-2.022-1.161c-0.412-0.3-0.749-0.674-0.936-1.049
	c-0.225-0.412-0.337-0.824-0.337-1.311c0-0.787,0.299-1.46,0.898-2.022c0.6-0.562,1.349-0.862,2.285-0.862
	c0.337,0,0.637,0.038,0.974,0.113c0.225,0.075,0.524,0.187,0.861,0.337c0.337,0.149,0.6,0.225,0.712,0.225
	c0.149,0,0.262-0.038,0.337-0.113c0.075-0.075,0.149-0.262,0.188-0.562H62.954z M48.384,7.267l2.809-6.629h4.195v0.262h-0.337
	c-0.3,0-0.562,0.075-0.75,0.15c-0.112,0.075-0.225,0.187-0.299,0.375c-0.038,0.112-0.075,0.412-0.075,0.937v6.629
	c0,0.524,0.038,0.824,0.075,0.974c0.075,0.112,0.187,0.225,0.337,0.337c0.187,0.074,0.412,0.149,0.711,0.149h0.337v0.262h-5.394
	V10.45h0.337c0.3,0,0.562-0.075,0.749-0.149c0.112-0.075,0.225-0.188,0.299-0.375c0.038-0.112,0.075-0.449,0.075-0.937V1.536
	l-3.97,9.176h-0.188l-4.007-9.101V8.69c0,0.487,0,0.787,0.037,0.899c0.075,0.262,0.225,0.449,0.45,0.599
	c0.225,0.187,0.562,0.262,1.011,0.262v0.262h-3.521V10.45h0.112c0.225,0,0.45-0.037,0.637-0.112c0.187-0.075,0.337-0.188,0.449-0.3
	c0.113-0.15,0.188-0.337,0.225-0.562c0.037-0.075,0.037-0.3,0.037-0.749V2.36c0-0.524-0.037-0.862-0.075-0.974
	c-0.075-0.112-0.188-0.225-0.375-0.337c-0.15-0.113-0.375-0.15-0.674-0.15h-0.337V0.637h4.195L48.384,7.267z M40.594,10.45v0.262
	h-5.356V10.45h0.337c0.3,0,0.524-0.075,0.712-0.149c0.112-0.075,0.225-0.188,0.3-0.375c0.037-0.112,0.075-0.449,0.075-0.937V2.36
	c0-0.524-0.038-0.862-0.075-0.974c-0.075-0.112-0.15-0.225-0.337-0.337c-0.15-0.113-0.412-0.15-0.674-0.15h-0.337V0.637h5.356v0.262
	h-0.337c-0.3,0-0.524,0.075-0.712,0.15c-0.149,0.075-0.225,0.187-0.299,0.375c-0.075,0.112-0.112,0.412-0.112,0.937v6.629
	c0,0.524,0.037,0.824,0.112,0.974c0.037,0.112,0.15,0.225,0.337,0.337c0.15,0.074,0.375,0.149,0.674,0.149H40.594z M27.522,0.637
	l5.094,6.217V2.547c0-0.599-0.075-1.011-0.262-1.236c-0.262-0.262-0.637-0.412-1.236-0.412V0.637h3.408v0.262
	c-0.412,0.075-0.712,0.112-0.861,0.225c-0.15,0.075-0.262,0.225-0.375,0.412c-0.075,0.188-0.112,0.524-0.112,1.011v8.39h-0.262
	l-6.966-8.39v6.405c0,0.599,0.15,0.974,0.412,1.198c0.262,0.188,0.599,0.3,0.937,0.3h0.262v0.262h-3.67V10.45
	c0.562,0,0.937-0.112,1.161-0.337c0.225-0.225,0.337-0.637,0.337-1.161V1.836L25.2,1.574c-0.225-0.262-0.412-0.45-0.6-0.524
	c-0.149-0.075-0.412-0.15-0.711-0.15V0.637H27.522z"/>
<path fill="#CF2027" d="M61.643,12.173h1.536v0.113h-0.075c-0.075,0-0.15,0.038-0.262,0.075c-0.112,0.038-0.187,0.112-0.299,0.187
	c-0.075,0.113-0.188,0.263-0.3,0.45l-1.049,1.61v1.086c0,0.262,0,0.412,0.075,0.486c0.075,0.075,0.225,0.113,0.375,0.113h0.15v0.149
	H59.92v-0.149h0.15c0.188,0,0.337-0.038,0.412-0.15c0.038-0.074,0.075-0.225,0.075-0.449v-1.011l-1.198-1.798
	c-0.15-0.188-0.225-0.337-0.3-0.375c-0.037-0.075-0.15-0.112-0.299-0.187c-0.038-0.038-0.113-0.038-0.188-0.038v-0.113h1.873v0.113
	h-0.113c-0.112,0-0.187,0.038-0.262,0.075c-0.112,0.038-0.15,0.112-0.15,0.187c0,0.075,0.075,0.225,0.225,0.413l0.899,1.386
	l0.861-1.311c0.112-0.187,0.188-0.337,0.188-0.45c0-0.038-0.038-0.112-0.038-0.149c-0.037-0.038-0.075-0.075-0.149-0.112
	c-0.038-0.038-0.15-0.038-0.262-0.038V12.173z M58.272,12.173l0.075,1.012h-0.149c0-0.188-0.038-0.3-0.075-0.375
	c-0.075-0.15-0.15-0.225-0.262-0.3c-0.113-0.038-0.262-0.075-0.45-0.075h-0.599v3.258c0,0.262,0,0.412,0.075,0.486
	c0.075,0.075,0.225,0.113,0.375,0.113h0.149v0.149h-1.873v-0.149h0.187c0.188,0,0.3-0.038,0.375-0.15
	c0.075-0.074,0.075-0.225,0.075-0.449v-3.258H55.65c-0.188,0-0.337,0-0.412,0.037c-0.112,0.038-0.225,0.112-0.299,0.225
	c-0.075,0.113-0.113,0.263-0.15,0.487h-0.112l0.037-1.012H58.272z M54.302,16.293v0.149h-1.873v-0.149h0.187
	c0.15,0,0.3-0.038,0.375-0.15c0.038-0.037,0.075-0.225,0.075-0.486v-2.734c0-0.225,0-0.375-0.037-0.412
	c-0.038-0.075-0.075-0.112-0.15-0.15c-0.075-0.037-0.188-0.075-0.263-0.075h-0.187v-0.113h1.873v0.113h-0.149
	c-0.188,0-0.3,0.038-0.375,0.15c-0.075,0.075-0.075,0.225-0.075,0.487v2.734c0,0.225,0,0.375,0.038,0.449
	c0,0.037,0.075,0.074,0.112,0.112c0.112,0.075,0.187,0.075,0.3,0.075H54.302z M51.643,12.061v1.499H51.53
	c-0.037-0.3-0.112-0.524-0.225-0.674c-0.075-0.188-0.225-0.3-0.412-0.412c-0.188-0.112-0.375-0.149-0.6-0.149
	c-0.187,0-0.375,0.075-0.524,0.187c-0.15,0.15-0.225,0.3-0.225,0.45c0,0.149,0.038,0.262,0.149,0.374
	c0.113,0.15,0.45,0.375,0.937,0.637c0.412,0.188,0.674,0.375,0.824,0.487c0.15,0.112,0.262,0.225,0.337,0.412
	c0.112,0.149,0.149,0.299,0.149,0.486c0,0.301-0.149,0.6-0.412,0.824c-0.225,0.225-0.562,0.338-0.974,0.338
	c-0.112,0-0.262,0-0.375-0.037c-0.038,0-0.188-0.038-0.412-0.113c-0.187-0.074-0.337-0.074-0.375-0.074c-0.075,0-0.112,0-0.15,0.037
	c0,0.037-0.037,0.074-0.075,0.188h-0.112v-1.461h0.112c0.075,0.299,0.15,0.524,0.262,0.674c0.075,0.188,0.225,0.301,0.413,0.412
	c0.187,0.075,0.412,0.15,0.636,0.15c0.262,0,0.487-0.075,0.637-0.225c0.15-0.15,0.225-0.301,0.225-0.487
	c0-0.112,0-0.226-0.075-0.337c-0.075-0.075-0.15-0.187-0.262-0.299c-0.112-0.038-0.337-0.188-0.711-0.375
	c-0.375-0.224-0.637-0.375-0.787-0.487s-0.262-0.262-0.375-0.412c-0.075-0.149-0.112-0.299-0.112-0.486
	c0-0.3,0.112-0.562,0.375-0.787c0.225-0.225,0.524-0.337,0.899-0.337c0.262,0,0.487,0.075,0.749,0.188
	c0.112,0.038,0.225,0.075,0.262,0.075s0.112-0.038,0.112-0.038c0.038-0.038,0.075-0.113,0.112-0.225H51.643z M45.575,14.233
	c0.038,0,0.075,0,0.112,0h0.075c0.412,0,0.711-0.075,0.936-0.262c0.188-0.187,0.3-0.412,0.3-0.674s-0.075-0.487-0.262-0.637
	c-0.15-0.188-0.375-0.262-0.674-0.262c-0.112,0-0.262,0.038-0.487,0.075V14.233z M48.684,16.443h-1.161l-1.498-2.022
	c-0.113,0-0.188,0.038-0.262,0.038l-0.075-0.038h-0.112v1.236c0,0.299,0.038,0.449,0.075,0.523c0.113,0.075,0.225,0.113,0.375,0.113
	h0.187v0.149h-1.873v-0.149h0.149c0.188,0,0.337-0.038,0.413-0.15c0.037-0.074,0.075-0.225,0.075-0.486v-2.734
	c0-0.262-0.038-0.45-0.113-0.487c-0.075-0.112-0.187-0.15-0.375-0.15h-0.149v-0.113h1.573c0.487,0,0.824,0.038,1.049,0.075
	c0.225,0.075,0.412,0.225,0.562,0.375c0.149,0.188,0.225,0.412,0.225,0.637c0,0.262-0.112,0.487-0.262,0.674
	c-0.188,0.188-0.45,0.337-0.824,0.412l0.898,1.236c0.225,0.263,0.375,0.45,0.525,0.562c0.149,0.075,0.337,0.15,0.599,0.15V16.443z
	 M41.567,12.398v1.685h0.974c0.225,0,0.412-0.037,0.487-0.112c0.112-0.112,0.188-0.262,0.188-0.524h0.112v1.498h-0.112
	c-0.038-0.188-0.038-0.337-0.075-0.412c-0.037-0.075-0.112-0.112-0.187-0.15c-0.113-0.037-0.225-0.075-0.412-0.075h-0.974v1.423
	c0,0.188,0,0.301,0.038,0.338c0,0.037,0.038,0.074,0.075,0.074c0.037,0.037,0.149,0.037,0.262,0.037h0.75
	c0.225,0,0.412,0,0.524-0.037c0.112-0.037,0.225-0.111,0.299-0.188c0.15-0.149,0.3-0.336,0.412-0.6h0.15l-0.375,1.087h-3.371v-0.149
	h0.15c0.112,0,0.188,0,0.299-0.075c0.075,0,0.113-0.075,0.15-0.149c0-0.037,0.037-0.188,0.037-0.412v-2.734
	c0-0.3-0.037-0.45-0.112-0.524s-0.187-0.112-0.375-0.112h-0.15v-0.113h3.371l0.038,0.937h-0.113
	c-0.075-0.225-0.112-0.375-0.149-0.487c-0.075-0.075-0.15-0.15-0.262-0.187c-0.075-0.038-0.225-0.038-0.45-0.038H41.567z
	 M40.107,12.173v0.113c-0.15,0.038-0.262,0.075-0.337,0.15c-0.112,0.112-0.225,0.262-0.3,0.449l-1.536,3.633h-0.112l-1.648-3.67
	c-0.075-0.188-0.112-0.3-0.149-0.337c-0.075-0.075-0.112-0.112-0.225-0.15c-0.075-0.037-0.15-0.075-0.3-0.075v-0.113h1.798v0.113
	c-0.225,0-0.337,0.038-0.412,0.112c-0.075,0.038-0.075,0.112-0.075,0.187c0,0.075,0.038,0.263,0.15,0.487l1.086,2.472l1.049-2.472
	c0.075-0.224,0.15-0.412,0.15-0.487c0-0.075-0.038-0.112-0.112-0.187c-0.038-0.038-0.15-0.075-0.3-0.112h-0.075v-0.113H40.107z
	 M35.275,16.293v0.149h-1.873v-0.149h0.149c0.188,0,0.337-0.038,0.412-0.15c0.038-0.037,0.075-0.225,0.075-0.486v-2.734
	c0-0.225-0.038-0.375-0.038-0.412c-0.038-0.075-0.075-0.112-0.15-0.15c-0.075-0.037-0.187-0.075-0.3-0.075h-0.149v-0.113h1.873
	v0.113h-0.15c-0.188,0-0.3,0.038-0.375,0.15c-0.075,0.075-0.112,0.225-0.112,0.487v2.734c0,0.225,0.037,0.375,0.075,0.449
	c0,0.037,0.038,0.074,0.112,0.112c0.112,0.075,0.188,0.075,0.3,0.075H35.275z M28.384,12.173h1.198l2.66,3.183v-2.434
	c0-0.262-0.038-0.45-0.075-0.524c-0.075-0.075-0.225-0.112-0.375-0.112h-0.188v-0.113h1.536v0.113h-0.15
	c-0.187,0-0.299,0.038-0.374,0.15c-0.075,0.075-0.075,0.225-0.075,0.487v3.559h-0.112l-2.884-3.409v2.622
	c0,0.262,0.037,0.412,0.075,0.486c0.075,0.075,0.225,0.113,0.375,0.113h0.188v0.149h-1.536v-0.149h0.15
	c0.187,0,0.299-0.038,0.375-0.15c0.075-0.074,0.075-0.225,0.075-0.449v-2.959c-0.112-0.15-0.225-0.262-0.262-0.299
	c-0.075-0.038-0.187-0.075-0.3-0.112c-0.075-0.038-0.149-0.038-0.299-0.038V12.173z M26.886,12.286v-0.113h1.536v0.113h-0.188
	c-0.15,0-0.299,0.075-0.375,0.225c-0.037,0.037-0.075,0.187-0.075,0.45v1.723c0,0.412-0.037,0.75-0.112,0.974
	c-0.113,0.225-0.262,0.449-0.524,0.599c-0.262,0.188-0.6,0.263-1.049,0.263c-0.45,0-0.824-0.075-1.086-0.225
	c-0.225-0.188-0.412-0.375-0.524-0.674c-0.075-0.188-0.075-0.525-0.075-1.05v-1.647c0-0.262-0.038-0.45-0.112-0.524
	s-0.225-0.112-0.375-0.112h-0.15v-0.113h1.873v0.113H25.5c-0.187,0-0.337,0.038-0.412,0.15c-0.038,0.075-0.075,0.262-0.075,0.487
	v1.835c0,0.188,0.038,0.375,0.038,0.599c0.038,0.188,0.112,0.375,0.188,0.488c0.075,0.111,0.187,0.225,0.337,0.299
	c0.15,0.075,0.337,0.112,0.562,0.112c0.299,0,0.562-0.075,0.786-0.187c0.225-0.113,0.375-0.263,0.45-0.449
	c0.075-0.188,0.112-0.525,0.112-0.974v-1.723c0-0.262,0-0.45-0.075-0.487c-0.075-0.112-0.188-0.15-0.375-0.15H26.886z"/>
<path fill="#CF2027" d="M60.782,20.6h0.037h0.075c0.225,0,0.412-0.037,0.562-0.149c0.113-0.112,0.188-0.263,0.188-0.412
	s-0.075-0.3-0.15-0.374c-0.112-0.113-0.262-0.15-0.412-0.15c-0.075,0-0.187,0-0.299,0.037V20.6z M62.654,21.949h-0.711l-0.899-1.235
	c-0.075,0-0.113,0.037-0.15,0.037l-0.075-0.037h-0.037v0.748c0,0.188,0,0.262,0.037,0.338c0.038,0.037,0.112,0.074,0.225,0.074
	h0.112v0.075h-1.161v-0.075h0.112c0.112,0,0.187-0.037,0.262-0.112c0-0.038,0.038-0.149,0.038-0.3v-1.647
	c0-0.149-0.038-0.263-0.075-0.3c-0.038-0.074-0.112-0.074-0.225-0.074h-0.112v-0.076h0.974c0.299,0,0.486,0,0.636,0.038
	c0.112,0.038,0.225,0.112,0.337,0.225c0.075,0.112,0.15,0.226,0.15,0.374c0,0.188-0.075,0.301-0.188,0.412
	c-0.075,0.15-0.262,0.225-0.487,0.263l0.562,0.749c0.113,0.15,0.225,0.262,0.3,0.337c0.112,0.038,0.225,0.075,0.375,0.112V21.949z
	 M58.984,19.44v-0.076h0.899v0.076h-0.075c-0.112,0-0.187,0.037-0.262,0.111c0,0.037-0.038,0.113-0.038,0.263v1.048
	c0,0.263,0,0.45-0.075,0.6c-0.038,0.15-0.149,0.262-0.3,0.375c-0.149,0.112-0.374,0.149-0.636,0.149s-0.487-0.037-0.637-0.149
	c-0.15-0.075-0.262-0.225-0.337-0.375c-0.038-0.111-0.038-0.337-0.038-0.637v-1.011c0-0.149-0.038-0.263-0.075-0.3
	c-0.038-0.074-0.112-0.074-0.225-0.074h-0.112v-0.076h1.161v0.076h-0.112c-0.113,0-0.188,0-0.225,0.074
	c-0.037,0.037-0.037,0.15-0.037,0.3v1.124c0,0.111,0,0.225,0,0.336c0.037,0.15,0.075,0.225,0.112,0.301
	c0.037,0.074,0.112,0.148,0.225,0.187c0.075,0.038,0.188,0.075,0.337,0.075c0.15,0,0.337-0.037,0.45-0.113
	c0.149-0.074,0.225-0.187,0.3-0.299c0.037-0.112,0.075-0.3,0.075-0.563v-1.048c0-0.149-0.038-0.263-0.075-0.3
	c-0.038-0.074-0.113-0.074-0.225-0.074H58.984z M55.65,20.6c0.075,0.037,0.15,0.037,0.188,0.037c0.037,0,0.112,0,0.149,0
	c0.113,0,0.225-0.037,0.337-0.149c0.113-0.075,0.15-0.225,0.15-0.374c0-0.113-0.038-0.225-0.075-0.338
	c-0.037-0.074-0.112-0.149-0.188-0.188c-0.112-0.037-0.187-0.074-0.299-0.074c-0.075,0-0.15,0-0.262,0.037V20.6z M55.65,20.713
	v0.748c0,0.188,0.037,0.262,0.075,0.338c0.038,0.037,0.113,0.074,0.225,0.074h0.075v0.075h-1.124v-0.075h0.112
	c0.112,0,0.187-0.037,0.225-0.112c0.038-0.038,0.038-0.149,0.038-0.3v-1.647c0-0.149,0-0.263-0.038-0.3
	c-0.075-0.074-0.15-0.074-0.225-0.074h-0.112v-0.076h0.974c0.225,0,0.412,0,0.562,0.076c0.149,0.037,0.262,0.111,0.337,0.225
	c0.112,0.111,0.15,0.262,0.15,0.412c0,0.187-0.075,0.374-0.225,0.486c-0.15,0.15-0.337,0.225-0.599,0.225
	c-0.075,0-0.113,0-0.188-0.037C55.838,20.75,55.725,20.75,55.65,20.713z M54.751,21.874v0.075H53.59v-0.075h0.112
	c0.113,0,0.188-0.037,0.225-0.112c0.038-0.038,0.075-0.112,0.075-0.3v-1.647c0-0.149-0.038-0.226-0.038-0.263
	s-0.038-0.074-0.075-0.074c-0.075-0.037-0.112-0.037-0.188-0.037H53.59v-0.076h1.161v0.076h-0.112c-0.112,0-0.188,0-0.225,0.074
	c-0.038,0.037-0.038,0.15-0.038,0.3v1.647c0,0.15,0,0.225,0,0.262c0.038,0.038,0.038,0.076,0.112,0.113
	c0.038,0,0.112,0.037,0.15,0.037H54.751z M52.392,20.938l-0.45-1.049l-0.449,1.049H52.392z M52.467,21.086h-1.049l-0.15,0.375
	c-0.075,0.113-0.075,0.188-0.075,0.225s0,0.075,0.038,0.113c0.037,0.037,0.149,0.074,0.262,0.074v0.075h-0.824v-0.075
	c0.112-0.037,0.188-0.037,0.188-0.074c0.075-0.076,0.149-0.188,0.225-0.375l0.936-2.135h0.075l0.899,2.135
	c0.075,0.188,0.149,0.299,0.225,0.337c0.038,0.075,0.15,0.112,0.262,0.112v0.075h-1.049v-0.075c0.112,0,0.15-0.037,0.187-0.074
	c0.038,0,0.075-0.038,0.075-0.076c0-0.074-0.037-0.148-0.075-0.299L52.467,21.086z M49.47,19.44v-0.076h1.124v0.076h-0.075
	c-0.112,0-0.187,0-0.262,0.074c-0.038,0.037-0.038,0.15-0.038,0.3v1.272c0,0.188-0.037,0.338-0.075,0.45
	c-0.037,0.112-0.112,0.225-0.225,0.337c-0.112,0.075-0.225,0.112-0.375,0.112c-0.113,0-0.225-0.037-0.3-0.075
	c-0.075-0.074-0.075-0.149-0.075-0.225c0-0.037,0-0.074,0.038-0.111c0.037-0.038,0.075-0.076,0.149-0.076
	c0.038,0,0.075,0,0.112,0.038s0.075,0.112,0.113,0.225c0.037,0.075,0.075,0.112,0.112,0.112c0.038,0,0.075-0.037,0.113-0.074
	c0.038-0.038,0.038-0.113,0.038-0.225v-1.761c0-0.149,0-0.226-0.038-0.263c0-0.037-0.038-0.074-0.075-0.074
	c-0.038-0.037-0.113-0.037-0.188-0.037H49.47z M47.298,22.585V22.51c0.112-0.074,0.225-0.111,0.3-0.225
	c0.075-0.074,0.113-0.188,0.113-0.262v-0.075l-0.038-0.038c-0.037,0-0.037,0.038-0.112,0.075h-0.075
	c-0.038,0-0.112-0.037-0.15-0.075c-0.038,0-0.038-0.074-0.038-0.149c0-0.038,0-0.112,0.075-0.149
	c0.037-0.037,0.112-0.075,0.15-0.075c0.112,0,0.188,0.038,0.262,0.112c0.037,0.074,0.075,0.188,0.075,0.3
	c0,0.149-0.038,0.263-0.112,0.374C47.635,22.436,47.485,22.51,47.298,22.585z M44.152,19.364h0.711l1.611,1.91v-1.46
	c0-0.188-0.038-0.263-0.075-0.3c-0.038-0.074-0.112-0.074-0.225-0.074H46.1v-0.076h0.936v0.076h-0.112c-0.113,0-0.188,0-0.225,0.074
	c-0.037,0.037-0.075,0.15-0.075,0.3v2.172h-0.038l-1.761-2.097v1.609c0,0.15,0.038,0.263,0.038,0.301
	c0.075,0.037,0.15,0.074,0.263,0.074h0.075v0.075h-0.936v-0.075h0.112c0.112,0,0.187-0.037,0.225-0.112
	c0.038-0.038,0.038-0.112,0.038-0.263v-1.797c-0.075-0.113-0.113-0.15-0.15-0.188c-0.037-0.037-0.112-0.037-0.187-0.074
	c-0.037,0-0.075,0-0.15,0V19.364z M43.065,20.938l-0.449-1.049l-0.449,1.049H43.065z M43.141,21.086h-1.049l-0.15,0.375
	c-0.037,0.113-0.075,0.188-0.075,0.225s0,0.075,0.038,0.113c0.037,0.037,0.15,0.074,0.262,0.074v0.075h-0.824v-0.075
	c0.113-0.037,0.188-0.037,0.225-0.074c0.038-0.076,0.113-0.188,0.188-0.375l0.937-2.135h0.075l0.937,2.135
	c0.075,0.188,0.112,0.299,0.187,0.337c0.075,0.075,0.15,0.112,0.262,0.112v0.075h-1.048v-0.075c0.112,0,0.187-0.037,0.224-0.074
	c0.038,0,0.038-0.038,0.038-0.076c0-0.074-0.038-0.148-0.075-0.299L43.141,21.086z M39.246,20.563h1.236v-0.749
	c0-0.149-0.038-0.226-0.038-0.263s-0.038-0.074-0.075-0.074c-0.075-0.037-0.112-0.037-0.188-0.037h-0.075v-0.076h1.124v0.076h-0.112
	c-0.037,0-0.112,0-0.15,0.037c-0.075,0-0.075,0.037-0.112,0.074c0,0.037,0,0.15,0,0.263v1.647c0,0.15,0,0.225,0,0.262
	c0.038,0.038,0.038,0.076,0.075,0.113c0.075,0,0.15,0.037,0.187,0.037h0.112v0.075h-1.124v-0.075h0.075
	c0.113,0,0.188-0.037,0.225-0.112c0.038-0.038,0.075-0.112,0.075-0.3v-0.786h-1.236v0.786c0,0.15,0,0.225,0.037,0.262
	c0,0.038,0.038,0.076,0.075,0.113c0.038,0,0.113,0.037,0.15,0.037h0.112v0.075h-1.123v-0.075h0.075c0.112,0,0.187-0.037,0.262-0.112
	c0-0.038,0.038-0.112,0.038-0.3v-1.647c0-0.149,0-0.226-0.038-0.263c0-0.037-0.038-0.074-0.075-0.074
	c-0.037-0.037-0.112-0.037-0.187-0.037h-0.075v-0.076h1.123v0.076h-0.112c-0.038,0-0.112,0-0.15,0.037
	c-0.037,0-0.075,0.037-0.075,0.074c-0.037,0.037-0.037,0.15-0.037,0.263V20.563z M38.309,19.364v0.6h-0.075
	c0-0.111-0.037-0.188-0.037-0.225c-0.038-0.074-0.112-0.15-0.187-0.188c-0.038,0-0.15-0.037-0.262-0.037h-0.375v1.984
	c0,0.15,0.037,0.263,0.075,0.301c0.038,0.037,0.112,0.074,0.225,0.074h0.075v0.075h-1.124v-0.075h0.112
	c0.113,0,0.188-0.037,0.225-0.112c0.037-0.038,0.037-0.112,0.037-0.263v-1.984h-0.3c-0.112,0-0.224,0-0.262,0.037
	c-0.075,0-0.112,0.075-0.187,0.15c-0.038,0.037-0.075,0.15-0.075,0.262h-0.075l0.038-0.6H38.309z M35.575,19.29v0.898h-0.037
	c-0.038-0.188-0.075-0.299-0.15-0.412c-0.038-0.111-0.15-0.188-0.262-0.225c-0.112-0.074-0.225-0.111-0.337-0.111
	c-0.15,0-0.262,0.037-0.337,0.111c-0.075,0.113-0.15,0.188-0.15,0.301c0,0.074,0.037,0.148,0.112,0.225
	c0.075,0.074,0.262,0.187,0.562,0.374c0.262,0.112,0.412,0.225,0.524,0.3c0.075,0.037,0.15,0.15,0.188,0.225
	c0.037,0.111,0.075,0.188,0.075,0.299c0,0.188-0.075,0.375-0.225,0.525c-0.15,0.111-0.375,0.187-0.6,0.187c-0.075,0-0.149,0-0.225,0
	c-0.038,0-0.112-0.037-0.262-0.075c-0.113-0.037-0.188-0.074-0.225-0.074l-0.075,0.037c-0.037,0.037-0.037,0.075-0.037,0.112H34.04
	v-0.861h0.075c0.037,0.188,0.075,0.3,0.112,0.412c0.075,0.075,0.15,0.149,0.262,0.225c0.15,0.038,0.262,0.075,0.412,0.075
	s0.299-0.037,0.375-0.113c0.112-0.074,0.15-0.187,0.15-0.299c0-0.074-0.038-0.112-0.075-0.188c-0.038-0.074-0.075-0.15-0.15-0.188
	c-0.037-0.037-0.187-0.111-0.412-0.262c-0.225-0.112-0.412-0.188-0.487-0.262c-0.113-0.075-0.188-0.188-0.225-0.263
	c-0.037-0.075-0.075-0.187-0.075-0.3c0-0.188,0.075-0.337,0.225-0.449c0.15-0.15,0.337-0.225,0.562-0.225
	c0.149,0,0.299,0.037,0.449,0.112c0.075,0.038,0.112,0.038,0.15,0.038l0.075-0.038c0.038,0,0.038-0.038,0.075-0.112H35.575z
	 M32.653,20.938l-0.449-1.049l-0.45,1.049H32.653z M32.691,21.086H31.68l-0.188,0.375c-0.037,0.113-0.075,0.188-0.075,0.225
	s0.038,0.075,0.075,0.113c0.038,0.037,0.112,0.074,0.262,0.074v0.075h-0.861v-0.075c0.112-0.037,0.188-0.037,0.225-0.074
	c0.075-0.076,0.149-0.188,0.225-0.375l0.936-2.135h0.075l0.899,2.135c0.075,0.188,0.15,0.299,0.225,0.337
	c0.038,0.075,0.112,0.112,0.225,0.112v0.075h-1.049v-0.075c0.113,0,0.188-0.037,0.225-0.074c0.037,0,0.075-0.038,0.075-0.076
	c0-0.074-0.038-0.148-0.075-0.299L32.691,21.086z M29.732,19.44v-0.076h1.124v0.076h-0.112c-0.113,0-0.188,0-0.225,0.074
	c-0.037,0.037-0.037,0.15-0.037,0.3v1.272c0,0.188-0.038,0.338-0.075,0.45s-0.112,0.225-0.225,0.337
	c-0.112,0.075-0.225,0.112-0.375,0.112s-0.225-0.037-0.3-0.075c-0.075-0.074-0.112-0.149-0.112-0.225
	c0-0.037,0.038-0.074,0.075-0.111c0.038-0.038,0.075-0.076,0.112-0.076c0.075,0,0.113,0,0.113,0.038
	c0.037,0.038,0.075,0.112,0.15,0.225c0.037,0.075,0.075,0.112,0.112,0.112c0.037,0,0.075-0.037,0.075-0.074
	c0.038-0.038,0.075-0.113,0.075-0.225v-1.761c0-0.149-0.037-0.226-0.037-0.263s-0.038-0.074-0.075-0.074
	c-0.075-0.037-0.112-0.037-0.187-0.037H29.732z M28.196,20.938l-0.449-1.049l-0.449,1.049H28.196z M28.271,21.086h-1.049
	l-0.15,0.375c-0.037,0.113-0.075,0.188-0.075,0.225s0,0.075,0.038,0.113c0.037,0.037,0.149,0.074,0.262,0.074v0.075h-0.824v-0.075
	c0.112-0.037,0.187-0.037,0.225-0.074c0.038-0.076,0.112-0.188,0.188-0.375l0.937-2.135h0.075l0.936,2.135
	c0.075,0.188,0.112,0.299,0.187,0.337c0.075,0.075,0.15,0.112,0.263,0.112v0.075h-1.049v-0.075c0.112,0,0.188-0.037,0.225-0.074
	c0.038,0,0.038-0.038,0.038-0.076c0-0.074-0.038-0.148-0.075-0.299L28.271,21.086z M24.601,20.6h0.038h0.075
	c0.225,0,0.412-0.037,0.562-0.149c0.112-0.112,0.188-0.263,0.188-0.412s-0.075-0.3-0.15-0.374c-0.112-0.113-0.262-0.15-0.412-0.15
	c-0.075,0-0.187,0-0.3,0.037V20.6z M26.474,21.949h-0.712l-0.899-1.235c-0.075,0-0.112,0.037-0.149,0.037l-0.075-0.037h-0.038v0.748
	c0,0.188,0,0.262,0.038,0.338c0.075,0.037,0.15,0.074,0.225,0.074h0.112v0.075h-1.123v-0.075h0.075c0.112,0,0.188-0.037,0.262-0.112
	c0-0.038,0.038-0.149,0.038-0.3v-1.647c0-0.149-0.038-0.263-0.075-0.3c-0.037-0.074-0.112-0.074-0.225-0.074h-0.075v-0.076h0.936
	c0.3,0,0.487,0,0.637,0.038s0.262,0.112,0.337,0.225c0.113,0.112,0.15,0.226,0.15,0.374c0,0.188-0.075,0.301-0.15,0.412
	c-0.112,0.15-0.299,0.225-0.524,0.263l0.562,0.749c0.112,0.15,0.225,0.262,0.337,0.337c0.075,0.038,0.187,0.075,0.337,0.112V21.949z
	"/>
<rect x="24.001" y="17.903" fill="#E01E26" width="38.428" height="0.15"/>
<path fill="#FFFFFF" d="M12.091,20.263L12.091,20.263l-0.038-0.038l-0.038-0.037h-0.075v-0.074h0.075h0.038h0.075h0.038h0.075
	c0.075,0,0.15,0,0.225,0v0.037l-0.075,0.037h-0.037v0.037l0.337,0.75l0.075-0.188c0-0.037,0.038-0.112,0.038-0.15
	c0.038-0.037,0.038-0.111,0.075-0.149c0-0.075,0.037-0.112,0.037-0.149c0-0.075,0-0.113,0.038-0.15H12.84v-0.111h0.038l0.112,0.037
	h0.075h0.038l0.037-0.037h0.038h0.038h0.075h0.038l0.038,0.037l0.711-0.037v-0.038h0.038L14.151,20l0.037,0.038v0.038v0.037v0.037
	l0.038,0.037c0,0.075,0,0.113,0,0.188v0.037l-0.038,0.038h-0.037l-0.038-0.038v-0.037v-0.037v-0.037l-0.075-0.038
	c0,0-0.038-0.038-0.113-0.038c-0.037,0-0.075-0.037-0.112-0.037c-0.037,0-0.112,0-0.15,0h-0.037v0.449h0.075h0.038l0.075-0.037
	h0.038v-0.037h0.038v-0.075v-0.037l0.037-0.038l0.075,0.038v0.037v0.038v0.111v0.038v0.038c0,0.037,0,0.074,0,0.111v0.076
	l-0.038,0.037l-0.075-0.037v-0.076v-0.037l-0.038-0.037h-0.038h-0.075h-0.038h-0.038V21.2h0.075h0.038h0.075l0.075-0.037h0.075
	l0.075-0.038l0.075-0.038l0.037-0.074l0.038-0.037v-0.074l0.037-0.039l0.075,0.039v0.037v0.037l-0.038,0.074v0.075V21.2
	l-0.038,0.112v0.038l-0.037,0.037l-0.038-0.037l-0.037-0.038l-0.824,0.038c-0.038,0-0.038-0.038-0.038-0.076v-0.037h0.075h0.037
	V21.2c0-0.113-0.037-0.975-0.075-1.012v0.037H13.29l-0.075-0.037h-0.038v0.037l-0.487,1.049v0.038h-0.038v0.038h-0.037h-0.038
	l-0.038-0.038l-0.038-0.038L12.091,20.263z M11.642,21.2v0.037h0.038l0.037,0.037h0.038l0.038,0.038l-0.038,0.038h-0.038h-0.037
	h-0.075h-0.037h-0.038h-0.038h-0.075h-0.075h-0.037h-0.038v-0.038v-0.038h0.038h0.037l0.038-0.037V21.2l-0.038-0.937v-0.038
	l-0.037-0.037h-0.038l-0.038-0.037v-0.037h0.038h0.038h0.037h0.038h0.075h0.037h0.038h0.075l0.038-0.037h0.038h0.037l0.038,0.037
	v0.037l-0.038,0.037h-0.037l-0.038,0.037v0.038V21.2z M10.93,21.35l-0.038,0.037c-0.037,0-0.075-0.037-0.112-0.075
	c-0.038-0.038-0.075-0.112-0.15-0.188c-0.075-0.075-0.112-0.149-0.187-0.224c-0.075-0.076-0.15-0.15-0.188-0.226l-0.262-0.3
	c0,0.225,0,0.449,0,0.674v0.037V21.2v0.037h0.038l0.038,0.037h0.037h0.038v0.038l-0.038,0.038h-0.037h-0.038H9.994H9.919v-0.038
	L9.881,21.35H9.844H9.769H9.731l-0.038-0.038v-0.038l0.038-0.037h0.038h0.038V21.2v-0.037l0.037-0.076v-0.037v-0.037v-0.037v-0.074
	l0.038-0.676l-0.038-0.037H9.807H9.769l-0.038-0.037H9.694v-0.037l0.038-0.037h0.038h0.038h0.112h0.038h0.037h0.038h0.038
	l0.037,0.037l0.711,0.824l0.038-0.375v-0.075v-0.037l-0.038-0.038v-0.074v-0.037v-0.038l-0.037-0.038l-0.075-0.037v-0.037v-0.037
	h0.037h0.038h0.037l0.075,0.037h0.038l0.037-0.037h0.075h0.037h0.038v0.037v0.037l-0.038,0.037h-0.037h-0.038v0.038l-0.038,0.112
	v0.037v0.038v0.823l-0.037,0.038V21.35z M8.795,21.163C8.833,21.2,8.87,21.2,8.945,21.2c0.038,0,0.112,0,0.15,0
	c0.038-0.037,0.075-0.037,0.075-0.075l0.075-0.075l0.038-0.074v-0.563v-0.037v-0.037v-0.037v-0.038v-0.038H9.245v-0.037H9.207
	L9.17,20.151v-0.037v-0.037h0.037h0.038h0.038l0.037,0.037h0.038h0.038h0.038l0.075-0.037h0.038v0.037l0.037,0.037v0.037H9.544
	H9.507H9.469v0.037H9.432v0.038v0.038l-0.038,0.674c0,0.037-0.038,0.074-0.038,0.149c-0.038,0.038-0.075,0.075-0.112,0.112
	c0,0.037-0.075,0.037-0.15,0.075c-0.038,0-0.112,0.038-0.225,0.038c-0.075-0.038-0.112-0.038-0.188-0.038
	c-0.075-0.038-0.15-0.038-0.187-0.075c-0.075-0.037-0.112-0.074-0.15-0.112c0-0.038-0.038-0.112-0.038-0.149l0.038-0.787v-0.037
	H8.308H8.271l-0.038-0.037l-0.038-0.037c0.038-0.038,0.038-0.038,0.075-0.038h0.037h0.075l0.075,0.038h0.038h0.037h0.113h0.037
	h0.075v0.037L8.72,20.151H8.683H8.646l-0.038,0.037v0.037L8.57,20.901c0,0.037,0,0.074,0.038,0.111l0.075,0.112
	C8.72,21.125,8.758,21.163,8.795,21.163z M6.211,20.301c0-0.076,0-0.113,0.038-0.15c0-0.074,0.037-0.112,0.075-0.112
	c0.038-0.038,0.075-0.075,0.15-0.075c0.037-0.037,0.112-0.037,0.187-0.037l0.075,0.037c0.037,0,0.075,0,0.112,0.037h0.075
	l0.038,0.038V20l0.038-0.037L7.072,20v0.038l-0.038,0.038v0.111v0.037v0.113v0.037L6.96,20.413v-0.037l-0.038-0.074
	c0-0.038-0.037-0.076-0.037-0.113s-0.038-0.074-0.075-0.074c-0.038-0.037-0.112-0.037-0.187-0.037H6.548H6.473l-0.038,0.037
	l-0.038,0.074l0.038,0.113c0.038,0.037,0.075,0.037,0.112,0.074c0.075,0,0.112,0.037,0.188,0.075c0.037,0,0.112,0.037,0.15,0.037
	c0.075,0.038,0.112,0.112,0.149,0.149c0.038,0.076,0.038,0.113,0.038,0.188c0,0.076,0,0.113-0.038,0.188
	c-0.037,0.037-0.075,0.074-0.112,0.112C6.885,21.163,6.848,21.2,6.772,21.2c-0.037,0.037-0.112,0.037-0.187,0.037L6.51,21.2
	c-0.037,0-0.075,0-0.112-0.037c-0.037,0-0.075,0-0.075-0.038H6.286v0.038H6.249L6.211,21.2l-0.038-0.037v-0.076v-0.111v-0.037
	v-0.076v-0.037v-0.037V20.75h0.038v-0.037l0.075-0.038v0.112v0.074l0.038,0.076l0.038,0.074l0.112,0.037
	c0.037,0.037,0.075,0.037,0.112,0.037c0.075,0,0.15,0,0.187-0.037c0.038,0,0.075-0.074,0.075-0.148L6.81,20.825
	c0-0.037-0.038-0.074-0.075-0.074l-0.337-0.113c-0.075-0.037-0.112-0.074-0.149-0.149C6.211,20.451,6.211,20.375,6.211,20.301z
	 M5.611,20.188l-0.112,0.15c-0.037,0.074-0.075,0.112-0.112,0.188c-0.038,0.037-0.075,0.111-0.113,0.149
	C5.237,20.75,5.2,20.788,5.162,20.825l-0.075,0.037c0,0-0.037-0.037-0.037-0.074c-0.038-0.037-0.075-0.074-0.112-0.15
	c0-0.074-0.038-0.149-0.075-0.225c-0.037-0.074-0.037-0.111-0.075-0.188l-0.075-0.148c-0.037,0.187-0.037,0.411-0.075,0.637v0.037
	v0.111v0.039h0.038l0.037,0.037H4.75v0.037v0.037H4.712H4.675H4.6l-0.037-0.037H4.525H4.45H4.413H4.375H4.338v-0.037v-0.037h0.038
	l0.038-0.039H4.45v-0.037h0.038v-0.037V20.75l0.038-0.037v-0.076V20.6v-0.037L4.6,19.889v-0.037v-0.038H4.563H4.488v-0.038v-0.037
	l0.038-0.037l0.038,0.037H4.6h0.112H4.75h0.038h0.038l0.037,0.037H4.9v0.038l0.038,0.112l0.075,0.15
	c0,0.037,0.038,0.074,0.075,0.148c0,0.076,0.038,0.113,0.038,0.188C5.162,20.451,5.2,20.488,5.2,20.526v0.037v-0.037
	c0.037,0,0.075-0.038,0.112-0.075c0-0.075,0.038-0.112,0.075-0.149c0.037-0.076,0.075-0.113,0.112-0.188l0.188-0.262l0.075,0.037
	h0.038h0.038h0.037h0.038h0.038h0.038h0.075v0.037h0.038l-0.038,0.037V20H6.023H5.986H5.949v0.038l-0.15,0.974l0.038,0.037h0.037
	l0.038,0.037l0.038,0.038l-0.038,0.038H5.874H5.836l-0.075-0.038H5.687l-0.038-0.038H5.611l-0.075,0.038H5.462H5.424v-0.038
	l-0.037-0.037l0.037-0.037h0.038h0.037h0.038v-0.037L5.611,20.188z M4.076,20.788L4.076,20.788v0.037h0.038l0.038,0.037l0.037,0.039
	l-0.037,0.037H4.113H4.076H4.039l-0.075-0.037H3.926H3.889H3.814H3.776l-0.038-0.039H3.702l-0.038-0.037l0.038-0.037l0.112-0.037
	l0.15-0.937v-0.038v-0.037H3.926l-0.037-0.037v-0.037v-0.038h0.037h0.038l0.075,0.038h0.075l0.038,0.037h0.037h0.038h0.075h0.037
	h0.038v0.037v0.037l-0.038,0.038H4.301H4.263v0.038L4.076,20.788z M18.833,19.739l-0.038-0.037h-0.038h-0.037h-0.038l-0.038-0.113
	h0.075h0.075l0.038-0.037h0.037h0.075c0.075-0.037,0.112-0.037,0.187-0.074l0.075,0.149l-0.075-0.038h-0.037v0.038h0.037v0.038
	l0.038,0.037c0.038,0.037,0.075,0.074,0.112,0.15c0.075,0.037,0.112,0.111,0.15,0.111V20v-0.037
	c0.038-0.037,0.038-0.111,0.075-0.188c0-0.074,0-0.111,0.037-0.188c0-0.037,0-0.037,0-0.074l-0.075,0.037l-0.075-0.149h0.075h0.075
	h0.112l0.038-0.038h0.038l0.112-0.037v0.15h-0.038h-0.038h-0.037v0.037l-0.038,0.037c0,0.037,0,0.075-0.038,0.15
	c-0.037,0.112-0.075,0.262-0.112,0.375l-0.037,0.037v0.037l0.112,0.375v0.037h0.037l0.038-0.037l0.075,0.037V20.6v0.037h-0.037
	h-0.038h-0.038l-0.112,0.038h-0.037H19.47l-0.038,0.038h-0.075L19.32,20.75h-0.038l-0.037-0.037v-0.038l0.037-0.038h0.038
	l0.038-0.037v-0.037l-0.075-0.338l-0.037-0.074l-0.075-0.037c0-0.037-0.075-0.075-0.112-0.15c-0.075-0.074-0.112-0.111-0.15-0.149
	S18.833,19.739,18.833,19.739z M18.121,19.814l0.15,0.974v0.037h0.038h0.037h0.038v0.037v0.039l-0.075,0.037h-0.038h-0.112h-0.038
	h-0.075l-0.075,0.037h-0.037h-0.038l-0.038-0.037v-0.037l0.038-0.039h0.038h0.037v-0.037l-0.112-0.973l-0.187,0.074
	C17.634,19.963,17.56,19.963,17.56,20h-0.038v0.076v0.037l-0.037,0.037h-0.038l-0.038-0.037h-0.038v-0.037v-0.038V20v-0.037v-0.037
	v-0.112l0.038-0.038h0.038h0.038l1.011-0.111v-0.038h0.038h0.038h0.038v0.038v0.037v0.037v0.075v0.038v0.037v0.074L18.571,20
	l-0.038,0.038L18.496,20v-0.037l-0.037-0.074v-0.037h-0.038l-0.075-0.038h-0.037h-0.038h-0.075h-0.038H18.121z M17.223,20.901
	L17.223,20.901v0.037h0.037h0.038l0.038,0.037v0.037v0.037h-0.038H17.26h-0.112H17.11h-0.037l-0.075,0.037h-0.075h-0.038h-0.038
	v-0.037v-0.037l0.038-0.037h0.038v-0.037L16.811,20v-0.037l-0.038-0.037h-0.075v-0.037v-0.037h0.037h0.038h0.15h0.038l0.037-0.038
	h0.038h0.075l0.038-0.038h0.038l0.038,0.038l-0.038,0.038l-0.038,0.037l-0.038,0.037v0.037L17.223,20.901z M15.687,20.338
	c0-0.075,0-0.113,0.038-0.15c0-0.074,0-0.111,0.038-0.149s0.075-0.075,0.15-0.075c0.037-0.037,0.075-0.037,0.15-0.037h0.075
	c0.038,0,0.075,0,0.112,0s0.075,0,0.112,0h0.038v-0.037h0.038h0.037v0.037v0.037v0.113l0.038,0.037v0.111v0.038l-0.038,0.038h-0.037
	l-0.038-0.076c0-0.037-0.038-0.074-0.038-0.111c-0.038-0.037-0.075-0.075-0.112-0.075s-0.112,0-0.187,0h-0.075l-0.075,0.038
	l-0.038,0.037v0.111l0.038,0.076c0.037,0,0.075,0.037,0.15,0.037c0.037,0.037,0.112,0.037,0.149,0.037
	c0.075,0.037,0.15,0.037,0.188,0.037c0.075,0.038,0.15,0.075,0.188,0.113c0.037,0.037,0.037,0.111,0.037,0.188
	c0.038,0.074,0.038,0.111,0,0.188c0,0.037-0.037,0.074-0.075,0.111c-0.038,0.074-0.075,0.112-0.112,0.112
	c-0.075,0.038-0.15,0.038-0.188,0.075l-0.112-0.037c0,0-0.038,0-0.112,0c-0.038,0-0.075,0-0.075,0l-0.037-0.038v0.038L15.874,21.2
	h-0.038h-0.037v-0.075v-0.038v-0.074v-0.037l-0.038-0.074v-0.039v-0.037v-0.037V20.75h0.038l0.037-0.037v0.037
	c0,0.037,0.038,0.074,0.038,0.111l0.038,0.076l0.075,0.074c0,0,0.038,0.037,0.075,0.037c0.037,0,0.112,0,0.149,0h0.112l0.075-0.074
	l0.038-0.037c0-0.037,0-0.076,0-0.113l-0.038-0.074c-0.038-0.037-0.075-0.037-0.112-0.075l-0.375-0.038
	c-0.075-0.037-0.112-0.074-0.15-0.111C15.724,20.488,15.687,20.413,15.687,20.338z M3.327,20.825H3.29
	c-0.038,0-0.038-0.037-0.075-0.074c-0.037-0.037-0.075-0.113-0.112-0.188c-0.075-0.112-0.112-0.188-0.15-0.262
	C2.915,20.188,2.84,20.114,2.803,20l-0.188-0.336c-0.038,0.225-0.112,0.449-0.15,0.674v0.037v0.075v0.037v0.038h0.038l0.038,0.037
	V20.6v0.037H2.503H2.465L2.353,20.6v-0.037H2.315H2.278H2.204H2.166l-0.037-0.037v-0.038h0.037v-0.037h0.075h0.038v-0.038
	l0.037-0.074v-0.037l0.038-0.038v-0.038l0.038-0.074l0.15-0.674L2.503,19.44H2.465H2.428l-0.037-0.038v-0.038l0.037-0.037h0.038
	h0.038l0.075,0.037h0.038h0.038H2.69l0.038,0.038h0.038l0.038,0.038l0.524,0.936l0.075-0.337v-0.075l0.038-0.037v-0.037v-0.037
	v-0.076v-0.037v-0.037H3.402l-0.038-0.037v-0.038v-0.038l0.038-0.037l0.038,0.037h0.037l0.075,0.038h0.037h0.038h0.075h0.037
	l0.038,0.038v0.037l-0.038,0.037H3.702H3.664H3.626v0.037l-0.038,0.076l-0.037,0.037v0.037L3.364,20.75l-0.037,0.037V20.825z
	 M15.162,20.375l-0.037-0.112l-0.075-0.075l-0.075-0.037L14.9,20.114h-0.038l-0.038,0.037c0,0.15,0,0.3,0.038,0.449v0.037H14.9
	l0.112-0.037l0.075-0.074l0.038-0.075L15.162,20.375z M14.863,20.077L14.863,20.077H14.9H14.863z M15.237,21.2
	c0-0.037-0.038-0.075-0.075-0.113c-0.037-0.037-0.075-0.074-0.075-0.111c-0.038-0.074-0.075-0.113-0.112-0.113l-0.038-0.074
	L14.9,20.75h-0.038l0.038,0.374v0.038h0.037h0.038h0.038h0.037V21.2l-0.037,0.037h-0.038h-0.038h-0.15H14.75h-0.038l-0.075,0.037
	h-0.038h-0.037h-0.038l-0.037-0.037V21.2h0.037l0.038-0.037h0.037v-0.038l-0.075-0.974h-0.075l-0.038-0.037v-0.037v-0.038h0.038
	h0.038h0.15h0.037h0.038h0.075L14.825,20h0.038c0.075,0,0.15,0,0.225,0c0.038,0,0.112,0.038,0.188,0.038
	c0.037,0.038,0.075,0.075,0.112,0.112c0.037,0.037,0.075,0.112,0.075,0.15c0,0.074,0,0.111-0.038,0.149
	c0,0.075-0.037,0.112-0.075,0.112l-0.112,0.074l-0.075,0.038l0.075,0.075l0.038,0.037l0.075,0.074l0.038,0.076l0.037,0.037
	l0.075,0.111l0.038,0.038h0.037h0.038l0.038,0.038L15.612,21.2h-0.038h-0.037h-0.113h-0.037l-0.112,0.037L15.237,21.2z"/>
<path fill-rule="evenodd" clip-rule="evenodd" fill="#CF2027" d="M2.465,1.274l-0.15,0.3L2.204,1.873L2.091,2.21L2.016,2.547
	L1.979,2.885L1.941,3.222v0.375l0.038,0.337v0.112l0.3-0.225l0.262-0.262l0.262-0.3l0.225-0.337L3.29,2.547L3.402,2.36L3.214,2.397
	L3.064,2.51L2.877,2.622l-0.15,0.15L2.391,3.146V3.072L2.353,2.66V2.285l0.038-0.375l0.075-0.375l0.075-0.375L2.465,1.274z
	 M1.417,3.446l-0.075,0.3L1.267,4.083L1.229,4.42L1.192,4.757v0.337l0.038,0.375l0.037,0.337l0.075,0.337l0.038,0.112l0.262-0.299
	l0.225-0.3l0.187-0.337l0.188-0.375l0.187-0.412l0.075-0.225l-0.15,0.075l-0.149,0.15l-0.15,0.149L1.903,4.87L1.642,5.319
	L1.604,5.207L1.529,4.832L1.492,4.458L1.454,4.083V3.671l0.038-0.375L1.417,3.446z M7.334,16.143l-0.15-0.037l-0.412-0.188
	l-0.375-0.188l-0.375-0.188l-0.337-0.225L5.312,15.02l0.112,0.225l0.15,0.225l0.15,0.188l0.149,0.111l-0.412,0.338l-0.225,0.149
	l-0.262,0.112L4.75,16.443l-0.225,0.038l-0.262,0.037l-0.225-0.037l-0.225-0.076l0.225,0.226l0.225,0.187l0.262,0.113l0.262,0.111
	l0.262,0.076l0.262,0.074h0.299l0.262-0.074l0.262-0.038l0.262-0.112l0.262-0.15l0.262-0.148l0.225-0.226L7.334,16.143z
	 M1.791,9.701l0.038,0.112l0.112,0.45l0.075,0.449l0.075,0.45l0.038,0.449v0.487L2.053,12.51l-0.337-0.375l-0.262-0.262l-0.225-0.3
	l-0.225-0.299l-0.187-0.337L0.63,10.6L0.48,10.226L0.368,9.851l0.15,0.262l0.225,0.262l0.187,0.263l0.262,0.225l0.262,0.149
	l0.038,0.038v-0.038v-0.112L1.791,9.701z M2.653,14.907l0.15,0.225l0.149,0.187l0.188,0.188l0.15,0.113l0.225,0.111l0.188,0.075
	l0.187,0.038h0.225l0.225-0.038l0.188-0.112l0.187-0.074L4.9,15.432l0.112-0.076L4.75,14.907l-0.225-0.449l-0.262-0.412
	l-0.299-0.375l-0.113-0.149l-0.037,0.337l0.037,0.412l0.038,0.225l0.075,0.3l0.075,0.112l-0.188,0.075L3.626,15.02l-0.225,0.038
	H3.177l-0.225-0.075l-0.225-0.075H2.653z M3.402,13.746l-0.038-0.375L3.252,12.96L3.14,12.585L2.99,12.21l-0.15-0.375l-0.187-0.337
	l-0.262-0.337l0.075,0.824l0.112,0.412L2.69,12.81l0.075,0.15L2.69,12.997H2.503H2.315l-0.187-0.075l-0.15-0.075l-0.188-0.113
	l-0.149-0.15l-0.15-0.187l-0.15-0.225l-0.112-0.187l-0.038,0.038l0.038,0.3l0.112,0.262l0.15,0.263l0.112,0.224l0.187,0.225
	l0.15,0.225l0.188,0.149l0.187,0.15l0.225,0.112l0.187,0.037l0.225,0.075l0.188-0.038l0.188-0.038l0.112-0.037L3.402,13.746z
	 M1.642,7.566v0.112l0.038,0.449L1.642,8.615L1.604,9.102L1.566,9.551l-0.112,0.45l-0.112,0.412L1.08,9.963L0.93,9.626L0.78,9.289
	L0.63,8.952L0.518,8.54L0.443,8.166L0.368,7.754L0.331,7.379l0.112,0.3l0.112,0.337l0.15,0.262l0.187,0.3L1.08,8.802L1.117,8.84
	V8.802L1.154,8.69L1.642,7.566z M1.342,6.78L1.154,7.117l-0.112-0.3l-0.075-0.3L0.93,6.181L0.855,5.843V5.506V5.169l0.037-0.337
	l-0.075,0.3L0.743,5.469L0.705,5.806v0.337V6.48l0.038,0.337L0.78,7.154l0.075,0.337l0.112,0.337L1.08,8.053l0.187-0.262l0.15-0.225
	l0.15-0.3l0.113-0.3L1.791,6.63l0.075-0.337l0.037-0.188L1.342,6.78z"/>
<path fill-rule="evenodd" clip-rule="evenodd" fill="#CF2027" d="M20.144,9.701l-0.038,0.112l-0.112,0.45l-0.075,0.449l-0.075,0.45
	l-0.038,0.449v0.487l0.038,0.412l0.375-0.375l0.262-0.262l0.225-0.3l0.225-0.299l0.188-0.337l0.187-0.337l0.15-0.375l0.112-0.375
	l-0.15,0.262l-0.224,0.262l-0.225,0.263l-0.225,0.225l-0.262,0.149l-0.038,0.038v-0.038v-0.112L20.144,9.701z M18.496,13.746
	l0.075-0.375l0.112-0.412l0.112-0.375l0.15-0.375l0.15-0.375l0.187-0.337l0.225-0.337l-0.038,0.824l-0.112,0.412l-0.15,0.412
	l-0.038,0.15l0.075,0.037h0.187h0.15l0.187-0.075l0.188-0.075l0.188-0.113l0.149-0.15l0.15-0.187l0.112-0.225l0.15-0.187
	l0.038,0.038l-0.075,0.3l-0.113,0.262l-0.112,0.263l-0.15,0.224l-0.149,0.225l-0.15,0.225l-0.188,0.149l-0.187,0.15l-0.225,0.112
	l-0.187,0.037l-0.225,0.075l-0.188-0.038l-0.187-0.038l-0.113-0.037V13.746z M19.47,1.274l0.112,0.3l0.15,0.299l0.075,0.337
	l0.112,0.337l0.038,0.337l0.038,0.337v0.375l-0.038,0.337v0.112l-0.3-0.225l-0.262-0.262l-0.262-0.3L18.87,2.922l-0.225-0.375
	L18.533,2.36l0.15,0.037L18.87,2.51l0.188,0.112l0.15,0.15l0.337,0.375V3.072l0.038-0.412V2.285l-0.038-0.375L19.47,1.536
	l-0.075-0.375L19.47,1.274z M20.293,7.566v0.112l-0.037,0.449v0.487l0.075,0.487l0.037,0.449l0.113,0.45l0.112,0.412l0.225-0.45
	l0.188-0.337l0.149-0.337l0.15-0.337l0.112-0.412l0.075-0.375l0.075-0.412V7.379l-0.075,0.3l-0.15,0.337L21.23,8.278l-0.187,0.3
	l-0.188,0.225L20.818,8.84V8.802L20.781,8.69L20.293,7.566z M20.593,6.78l0.188,0.337l0.112-0.3l0.075-0.3l0.038-0.337l0.075-0.337
	V5.506V5.169l-0.037-0.337l0.075,0.3l0.075,0.337l0.037,0.337v0.337V6.48l-0.037,0.337l-0.038,0.337l-0.112,0.337L20.93,7.828
	l-0.075,0.225l-0.187-0.262l-0.15-0.225l-0.15-0.3l-0.112-0.3L20.144,6.63l-0.075-0.337l-0.038-0.188L20.593,6.78z M20.519,3.446
	l0.075,0.3l0.075,0.337l0.037,0.337l0.038,0.337v0.337l-0.038,0.375l-0.075,0.337l-0.038,0.337l-0.038,0.112l-0.262-0.299
	l-0.225-0.3l-0.187-0.337l-0.225-0.375l-0.149-0.412l-0.113-0.225l0.188,0.075l0.15,0.15l0.15,0.149l0.149,0.188l0.262,0.449
	l0.038-0.112l0.075-0.375l0.037-0.375l0.038-0.375V3.671l-0.038-0.375L20.519,3.446z M19.245,14.907l-0.113,0.225l-0.149,0.187
	l-0.188,0.188l-0.187,0.113l-0.188,0.111l-0.188,0.075l-0.225,0.038h-0.187l-0.225-0.038l-0.188-0.112l-0.187-0.074l-0.188-0.188
	l-0.112-0.076l0.225-0.449l0.262-0.449l0.262-0.412l0.299-0.375l0.113-0.149v0.337v0.412l-0.038,0.225l-0.075,0.3l-0.075,0.112
	l0.188,0.075l0.225,0.037l0.225,0.038h0.225l0.225-0.075l0.225-0.075H19.245z M14.601,16.143l0.15-0.037l0.412-0.188l0.375-0.188
	l0.375-0.188l0.337-0.225l0.375-0.299l-0.112,0.225l-0.15,0.225l-0.15,0.188l-0.149,0.111l0.412,0.338l0.225,0.149l0.225,0.112
	l0.262,0.075l0.225,0.038l0.262,0.037l0.225-0.037l0.225-0.076l-0.225,0.226l-0.225,0.187L17.41,16.93l-0.262,0.111l-0.262,0.076
	l-0.262,0.074h-0.3l-0.262-0.074l-0.262-0.038l-0.262-0.112l-0.262-0.15l-0.262-0.148l-0.225-0.226L14.601,16.143z"/>
<path fill-rule="evenodd" clip-rule="evenodd" fill="#1F4490" d="M10.93,16.106c1.798-0.937,3.595-2.397,4.719-4.12l-1.61-1.124
	L10.967,8.69l-4.644,3.296C7.447,13.709,8.982,15.057,10.93,16.106"/>
<path fill-rule="evenodd" clip-rule="evenodd" fill="#FDEB03" d="M11.455,10.638c-0.075,0.15-0.038,0.225,0.149,0.3
	c0.075-0.15,0.188-0.225,0.337-0.225c-0.075,0.15-0.038,0.562,0.262,0.487c0.037-0.112,0.15-0.188,0.337-0.188
	c-0.075,0.225-0.075,0.413,0.038,0.637c0.15-0.075,0.337-0.075,0.524,0c-0.262,0.225-0.337,0.487-0.337,0.75
	c0.262-0.112,0.412-0.038,0.487,0.112c-0.3,0.075-0.487,0.262-0.6,0.487l0.225,0.262c-0.45,0.225-0.899,0.337-1.311,0.337
	c-0.038,0.075-0.038,0.15,0.075,0.262c-0.15,0.038-0.262,0-0.375-0.075c-0.038,0.15-0.075,0.262-0.15,0.337
	c-0.15-0.075-0.187-0.225-0.187-0.337c-0.15,0.112-0.3,0.15-0.45,0.112c0.15-0.112,0.188-0.225,0.188-0.337
	c-0.45,0.075-0.899-0.038-1.311-0.188l0.225-0.337c0.075-0.112-0.562-0.45-0.824-0.487c-0.225-0.037,0.375-0.224,0.524-0.187
	c0.112-0.262,0-0.487-0.262-0.637c0.187-0.188,0.375-0.188,0.524,0c0.149-0.188,0.225-0.375,0.149-0.562l0.375,0.112
	c0.112-0.188,0.149-0.337,0.075-0.524c0.15-0.075,0.3,0,0.45,0.225c0.112-0.149-0.075-0.225-0.113-0.375
	c0.337-0.038,0.487,0.112,0.524,0.375c-0.599,0.787-0.787,1.161-0.188,1.91c0.038-0.188-0.037-0.337-0.262-0.375l0.337-0.187
	c-0.037-0.188,0.075-0.375,0.225-0.487c0.075,0.075,0.262,0.15,0.15,0.487l0.337,0.187c-0.225,0.075-0.375,0.187-0.337,0.412
	c0.674-0.524,0.524-1.498-0.112-1.948C11.155,10.675,11.229,10.638,11.455,10.638"/>
<path fill="none" stroke="#FDEB03" stroke-width="0.117" stroke-linecap="round" stroke-linejoin="round" stroke-miterlimit="10" d="
	M11.455,10.631c-0.075,0.15-0.037,0.225,0.15,0.3c0.075-0.149,0.187-0.225,0.337-0.225c-0.075,0.15-0.038,0.562,0.262,0.487
	c0.037-0.112,0.15-0.187,0.337-0.187c-0.075,0.225-0.075,0.412,0.038,0.636c0.15-0.075,0.337-0.075,0.524,0
	c-0.262,0.225-0.337,0.487-0.337,0.75c0.262-0.112,0.412-0.038,0.487,0.112c-0.3,0.075-0.487,0.262-0.599,0.487l0.225,0.262
	c-0.45,0.225-0.899,0.337-1.311,0.337c-0.038,0.075-0.038,0.15,0.075,0.262c-0.149,0.038-0.262,0-0.375-0.075
	c-0.037,0.149-0.075,0.262-0.15,0.337c-0.149-0.075-0.187-0.225-0.187-0.337c-0.15,0.112-0.3,0.149-0.45,0.112
	c0.15-0.112,0.188-0.225,0.188-0.337c-0.45,0.075-0.899-0.038-1.311-0.188l0.225-0.337c0.075-0.112-0.562-0.449-0.824-0.487
	c-0.225-0.037,0.375-0.225,0.524-0.187c0.112-0.262,0-0.487-0.262-0.637c0.188-0.187,0.375-0.187,0.524,0
	c0.149-0.187,0.225-0.375,0.149-0.562l0.375,0.112c0.112-0.187,0.149-0.337,0.075-0.524c0.15-0.075,0.3,0,0.45,0.225
	c0.112-0.15-0.075-0.225-0.113-0.375c0.337-0.038,0.487,0.112,0.524,0.375c-0.599,0.787-0.787,1.161-0.187,1.91
	c0.038-0.188-0.038-0.337-0.262-0.375l0.337-0.188c-0.038-0.187,0.075-0.375,0.224-0.487c0.075,0.075,0.262,0.15,0.15,0.487
	l0.337,0.188c-0.225,0.075-0.375,0.187-0.337,0.412c0.674-0.524,0.524-1.498-0.112-1.948C11.155,10.668,11.23,10.631,11.455,10.631z
	"/>
<path fill="#E01E26" d="M10.593,10.975c-0.262,0.412-0.375,0.787-0.375,1.086c0,0.412,0.225,0.75,0.787,1.011l-0.038,0.075
	c-0.562-0.262-0.824-0.637-0.824-1.086c0-0.337,0.15-0.711,0.412-1.123L10.593,10.975z"/>
<path fill="#E01E26" d="M10.181,11.199c-0.15,0.337-0.225,0.674-0.225,0.937c0,0.524,0.262,0.861,0.936,1.086l-0.037,0.075
	c-0.674-0.225-0.974-0.6-0.974-1.161c0-0.3,0.075-0.6,0.225-0.974L10.181,11.199z"/>
<path fill="#E01E26" d="M9.582,11.724c0,0.075,0,0.112,0,0.188c0,0.974,0.412,1.498,1.423,1.498l0,0v0.075
	c-0.524,0-0.899-0.113-1.161-0.413c-0.225-0.262-0.337-0.674-0.337-1.161c0-0.075,0-0.112,0-0.188H9.582z"/>
<path fill="#E01E26" d="M11.642,10.938c0.262,0.412,0.412,0.786,0.412,1.123c0,0.45-0.3,0.824-0.861,1.086v-0.075
	c0.524-0.262,0.749-0.599,0.749-1.011c0-0.299-0.112-0.674-0.375-1.086L11.642,10.938z"/>
<path fill="#E01E26" d="M12.054,11.162c0.15,0.374,0.262,0.674,0.262,0.974c0,0.562-0.337,0.936-1.011,1.161v-0.075
	c0.637-0.225,0.936-0.562,0.936-1.086c0-0.262-0.112-0.6-0.262-0.937L12.054,11.162z"/>
<path fill="#E01E26" d="M12.616,11.687c0,0.075,0,0.112,0,0.187c0,0.524-0.075,0.899-0.337,1.198
	c-0.225,0.262-0.599,0.413-1.086,0.413l0,0v-0.075c0.974,0,1.348-0.524,1.348-1.536c0-0.075,0-0.112,0-0.187H12.616z"/>
<path fill-rule="evenodd" clip-rule="evenodd" fill="#069547" d="M16.099,11.312c1.461-2.547,1.985-5.955,1.386-10.225l-6.068-0.038
	L11.379,7.94L16.099,11.312z"/>
<path fill-rule="evenodd" clip-rule="evenodd" fill="#E01E26" d="M5.874,11.274C4.488,8.84,3.889,5.207,4.413,1.049h6.143
	l0.038,6.891L5.874,11.274z"/>
<path fill-rule="evenodd" clip-rule="evenodd" fill="#ED7E23" d="M14.601,4.72l0.038-0.038l0.075-0.038l0.112-0.037l0.112-0.038
	l0.15-0.037L15.2,4.458l0.112-0.075l0.112-0.075l0.038-0.037V4.233L15.5,4.158l0.038-0.038V4.083l0.037-0.075V3.934V3.821V3.708
	l-0.037-0.112L15.5,3.483l-0.038-0.112l-0.038-0.075L15.35,3.184l-0.075-0.112L15.2,2.997l-0.075-0.075L15.05,2.847l-0.037-0.075
	l-0.038-0.075L14.9,2.622L14.863,2.51V2.435L14.825,2.36l-0.038-0.075V2.173L14.75,2.098V1.985V1.911V1.836V1.724l0.037-0.075
	l-0.075,0.15l-0.038,0.112l-0.037,0.075l-0.038,0.075v0.112L14.563,2.36v0.075v0.112v0.075l0.037,0.075V2.81l0.038,0.075
	l0.037,0.075l0.038,0.112l0.075,0.187l0.075,0.188l0.038,0.15v0.15v0.112v0.112l-0.038,0.075l-0.038,0.112l-0.038,0.075L14.75,4.308
	l-0.075,0.15l-0.037,0.038L14.601,4.57v0.075V4.72z M14.376,4.233l0.112-0.113l0.075-0.112V3.934l0.037-0.038V3.821l0.038-0.038
	V3.746V3.671V3.634l-0.038-0.038V3.483l-0.037-0.112l-0.075-0.188l-0.038-0.112l-0.038-0.075l-0.037-0.112V2.772L14.338,2.66
	l0.038-0.112L14.301,2.66v0.038l-0.038,0.075l-0.037,0.113v0.112v0.112v0.075l0.037,0.112v0.113l0.075,0.187l0.038,0.225v0.075
	l0.037,0.113V4.12l-0.037,0.075V4.233z M14.001,4.682l0.038-0.075l0.037-0.038l0.038-0.037l0.038-0.075V4.42V4.383l0.037-0.075
	V4.233V4.195L14.151,4.12l-0.038-0.074V3.934l-0.075-0.15l-0.038-0.112V3.634V3.596V3.483V3.409l0.038-0.075V3.296l0.037-0.075
	l0.038-0.038l-0.075,0.038l-0.075,0.037l-0.038,0.075l-0.075,0.038l-0.038,0.075l-0.037,0.075l-0.038,0.075l-0.038,0.075v0.075
	v0.075v0.075v0.075l0.038,0.075l0.038,0.074l0.037,0.075l0.038,0.075l0.038,0.037l0.037,0.038l0.038,0.038l0.038,0.075v0.038
	l0.038,0.075l-0.038,0.038V4.682z"/>
<path fill="#FFFFFF" d="M14.601,4.72h-0.037l0.075-0.038l0.037-0.038h0.038l0.112-0.075l0.112-0.037l0.112-0.038L15.2,4.42
	l0.112-0.075l0.075-0.075l0.037-0.038l0.038-0.038V4.158L15.5,4.12V4.046l0.038-0.038V3.934V3.821V3.708V3.596L15.5,3.521
	l-0.075-0.112l-0.037-0.113l-0.075-0.075l-0.075-0.112l-0.075-0.075l-0.075-0.075L15.05,2.885L14.975,2.81l-0.038-0.112L14.9,2.622
	l-0.038-0.075l-0.038-0.075V2.435L14.788,2.36L14.75,2.285V2.173V2.098l-0.038-0.112V1.911V1.836V1.798V1.724l0.038-0.075
	c0-0.037,0-0.037,0.037-0.037c0,0,0.038,0,0.038,0.037l-0.038,0.038c-0.037,0-0.037-0.038-0.037-0.038h0.037l-0.075,0.188v0.075
	l-0.038,0.075l-0.037,0.075v0.112L14.601,2.36v0.075V2.51v0.112l0.038,0.075V2.81l0.037,0.075l0.038,0.075l0.038,0.075l0.075,0.224
	l0.038,0.188l0.038,0.15l0.037,0.15v0.112v0.112L14.9,4.083l-0.038,0.075l-0.038,0.075l-0.038,0.075l-0.075,0.15l-0.038,0.075
	L14.638,4.57v0.075V4.72H14.601h-0.037H14.601h-0.037V4.645l0.037-0.075V4.495l0.038-0.075l0.075-0.149l0.075-0.038V4.12
	l0.038-0.074l0.038-0.075V3.858V3.746v-0.15l-0.038-0.15L14.75,3.259l-0.075-0.187l-0.037-0.075l-0.038-0.112L14.563,2.81V2.734
	V2.622l-0.038-0.075V2.435V2.36l0.038-0.188V2.061l0.037-0.075l0.038-0.112l0.037-0.075l0.075-0.187h0.037c0,0,0.038,0,0.038,0.037
	h-0.038h0.038h-0.038H14.75h0.037h0.038l-0.038,0.075v0.112v0.075v0.075v0.112l0.038,0.075v0.075l0.038,0.112v0.075L14.9,2.51
	l0.037,0.075l0.038,0.112l0.075,0.075l0.038,0.075l0.075,0.075L15.2,2.959l0.112,0.112l0.075,0.112l0.037,0.075L15.5,3.372
	l0.038,0.112l0.037,0.113l0.038,0.112v0.112v0.113v0.112l-0.038,0.037V4.12l-0.037,0.075L15.5,4.233l-0.038,0.038l-0.038,0.037
	L15.35,4.42l-0.112,0.075l-0.15,0.038l-0.112,0.075l-0.15,0.037l-0.112,0.038L14.675,4.72l-0.037,0.037c-0.038,0-0.038,0-0.038,0
	c-0.037,0-0.037,0-0.037-0.037H14.601z M14.376,4.233h-0.038l0.112-0.15l0.075-0.112l0.038-0.037V3.896l0.037-0.075V3.783V3.746
	V3.671V3.634V3.596l-0.037-0.113l-0.038-0.074l-0.075-0.225l-0.038-0.075l-0.037-0.112l-0.038-0.112V2.772V2.66V2.547h0.038h0.037
	L14.338,2.66l-0.038,0.075v0.038l-0.038,0.113v0.112v0.112v0.075v0.112l0.038,0.113l0.038,0.187l0.075,0.187v0.038v0.075v0.113V4.12
	v0.075v0.038H14.376h-0.038H14.376h-0.038V4.195l0.038-0.075V4.008l-0.038-0.075V3.821l-0.038-0.225l-0.075-0.187V3.296
	l-0.038-0.075V3.109V2.997V2.885l0.038-0.113l0.037-0.075V2.66V2.622l0.075-0.112h0.038c0.037,0,0.037,0,0.037,0.038L14.376,2.66
	v0.112l0.037,0.113l0.038,0.075v0.112l0.075,0.112l0.075,0.188l0.038,0.112v0.075v0.075l0.037,0.037v0.075l-0.037,0.037v0.075v0.037
	l-0.038,0.075v0.038L14.525,4.12v0.038l-0.112,0.112h-0.037c-0.038,0-0.038,0-0.038-0.038H14.376z M14.001,4.682l-0.038-0.038
	l0.038-0.037l0.038-0.038l0.037-0.075l0.038-0.038V4.42l0.038-0.037V4.308V4.233V4.195L14.114,4.12V4.046l-0.038-0.075l-0.075-0.188
	l-0.038-0.075V3.671V3.634V3.596V3.483V3.372l0.038-0.038V3.259l0.038-0.037l0.037-0.075l0.038,0.038v0.038l-0.075,0.037
	l-0.038,0.038l-0.075,0.038l-0.037,0.075l-0.038,0.074l-0.038,0.038l-0.037,0.075l-0.038,0.075v0.075v0.075v0.075v0.075l0.038,0.075
	V4.12l0.037,0.038l0.075,0.075l0.037,0.038l0.038,0.075l0.038,0.038l0.038,0.037v0.038v0.038V4.57v0.038v0.037v0.038H14.001
	l-0.038-0.038L14.001,4.682h-0.038l0.038-0.075V4.57l-0.038-0.075V4.458L13.926,4.42V4.383l-0.037-0.075l-0.075-0.037l-0.037-0.038
	V4.195l-0.038-0.037l-0.038-0.075l-0.038-0.075V3.971V3.896V3.821V3.746l0.038-0.075V3.596l0.038-0.075l0.038-0.075l0.037-0.075
	h0.038l0.038-0.075l0.075-0.038V3.222l0.038-0.038l0.075-0.038c0.038,0,0.038,0,0.038,0c0.038,0.038,0.038,0.038,0.038,0.038
	l-0.038,0.075l-0.038,0.038l-0.037,0.038v0.075v0.074v0.113v0.038v0.037l0.037,0.075l0.038,0.188l0.038,0.075l0.037,0.112
	l0.038,0.075v0.038v0.075l-0.038,0.075V4.42v0.038l-0.037,0.038v0.038l-0.038,0.075l-0.038,0.037l-0.037,0.038
	C14.001,4.72,14.001,4.72,13.964,4.72c0-0.038,0-0.038,0-0.038H14.001z"/>
<polygon fill-rule="evenodd" clip-rule="evenodd" fill="#010101" points="14.601,8.615 14.9,5.769 14.9,5.693 14.938,5.656 
	14.938,5.581 14.975,5.544 15.013,5.469 15.05,5.432 15.087,5.394 15.125,5.356 15.162,5.319 15.237,5.281 15.35,5.244 
	15.387,5.244 15.462,5.207 15.537,5.207 15.612,5.207 15.612,4.795 13.477,4.757 13.477,5.169 13.552,5.169 13.589,5.169 
	13.664,5.207 13.739,5.207 13.777,5.244 13.852,5.281 13.889,5.319 13.926,5.356 13.964,5.394 14.001,5.432 14.039,5.469 
	14.076,5.506 14.114,5.581 14.114,5.619 14.151,5.693 14.151,5.731 14.301,8.578 "/>
<path fill-rule="evenodd" clip-rule="evenodd" fill="#FFFFFF" d="M7.185,3.483c-0.412-0.524-1.086,0.113-1.91,0.075
	C5.35,3.634,5.35,3.783,5.761,3.671c-0.262,0.188-0.15,0.225,0.3,0.112c-0.3,0.225-0.15,0.263,0.562,0.075
	c-0.45,0.225,0,0.225,0.562,0.188C7.185,3.858,7.185,3.671,7.185,3.483 M7.484,3.483C7.896,2.959,8.57,3.596,9.432,3.559
	C9.319,3.634,9.357,3.783,8.945,3.671C9.17,3.858,9.057,3.896,8.646,3.783c0.262,0.225,0.112,0.263-0.6,0.075
	c0.45,0.225,0,0.225-0.562,0.188C7.484,3.858,7.484,3.671,7.484,3.483z M7.297,6.593V6.33C7.11,6.442,7.147,6.518,7.297,6.593z
	 M7.297,6.93V6.78C7.185,6.854,7.185,6.892,7.297,6.93z M7.372,6.817v0.149C7.447,6.93,7.484,6.892,7.372,6.817z M7.372,6.368v0.225
	C7.521,6.555,7.521,6.48,7.372,6.368z M7.372,5.731v0.412C7.671,5.993,7.709,5.806,7.372,5.731z M7.222,5.432
	C6.81,5.244,6.772,4.982,7.297,4.87v0.562H7.222z M7.372,5.469c0.412-0.188,0.449-0.449,0-0.562V5.469z M7.372,4.645l0.112,0.038
	c0.749-0.149,0.711-0.524,0.299-0.299C7.671,4.42,7.597,4.271,7.671,4.233c0.225-0.15,0.487-0.187,0.712-0.038
	C8.533,4.308,8.42,4.458,8.308,4.607C8.083,4.757,7.971,4.832,7.859,4.832c0.037,0.038,0.112,0.075,0.15,0.15
	c0.299,0.225,0.037,0.524-0.3,0.599L7.634,5.544c0.113,0.037,0.188,0.112,0.262,0.187c0.188,0.187-0.037,0.487-0.262,0.487
	c-0.112,0-0.149-0.037-0.262-0.075C7.484,6.181,7.634,6.255,7.709,6.33c0.15,0.112-0.038,0.337-0.225,0.375
	c0.037,0,0.075,0.037,0.112,0.075c0.112,0.075-0.038,0.262-0.15,0.262L7.372,7.004c0.149,0.075,0.262,0.15,0.337,0.262
	c0.038,0.075-0.038,0.075-0.15,0.037C7.521,7.229,7.447,7.191,7.372,7.154v0.749H7.297V7.117C7.222,7.154,7.147,7.191,7.11,7.267
	C6.998,7.304,6.922,7.304,6.96,7.229c0.075-0.075,0.188-0.15,0.337-0.225V6.967L7.222,7.004c-0.112,0-0.262-0.15-0.188-0.262
	C7.072,6.705,7.11,6.705,7.147,6.667c-0.15,0-0.375-0.225-0.225-0.375c0.075-0.075,0.225-0.15,0.375-0.188V5.693
	C6.922,5.769,6.96,5.956,7.26,6.105C7.185,6.143,7.11,6.181,7.035,6.181c-0.262,0-0.487-0.3-0.299-0.487
	c0.075-0.075,0.15-0.112,0.262-0.187L6.885,5.544c-0.3-0.075-0.562-0.337-0.3-0.6C6.66,4.87,6.698,4.832,6.772,4.795
	C6.66,4.795,6.51,4.72,6.323,4.57C6.211,4.458,6.061,4.308,6.249,4.158c0.225-0.112,0.449-0.112,0.674,0.037
	c0.038,0.112,0,0.15-0.112,0.15C6.398,4.12,6.398,4.495,7.147,4.645c0.037,0,0.075-0.037,0.149-0.037V3.372h0.075V4.645z
	 M7.334,2.959c0.112,0,0.225,0.075,0.225,0.187c0,0.112-0.112,0.225-0.225,0.225S7.11,3.259,7.11,3.146
	C7.11,3.035,7.222,2.959,7.334,2.959z"/>
</svg>
